#!OML:ASF G:\JayActor3\Patient Classification 1\Patient 1\Session 2\male.ASF
:FULLY-SPECIFIED
:DEGREES
3547
root -35.1988 16.8055 -5.53632 4327.21 -75.3901 -2886.03
lowerback -4.99567 -0.0982119 -0.236414
upperback 2.63847 -0.123042 0.0385073
thorax 5.54043 -0.0734188 0.160385
lowerneck -9.13564 -2.33738 -1.95613
upperneck 5.69286 -3.38017 5.85866
head 3.65915 -1.47766 2.10197
rclavicle -2.26366e-014 8.74653e-015
rhumerus -29.9506 -10.8197 -84.2885
rradius 22.6863
rwrist 1.04419
rhand -21.3653 5.12294
rfingers 7.12502
rthumb 5.02167 -24.7976
lclavicle -2.26366e-014 8.74653e-015
lhumerus -30.4203 6.2477 85.5567
lradius 31.603
lwrist 9.56905
lhand -18.5637 16.1503
lfingers 7.12502
lthumb 7.72632 45.9892
rfemur -9.7453 1.1693 21.8972
rtibia 38.3919
rfoot -25.0068 -5.63458
rtoes 13.99
lfemur -9.80088 12.6583 -24.123
ltibia 22.9877
lfoot -17.6568 17.4718
ltoes 5.04639
3548
root -35.2032 16.7991 -5.51589 4326.7 -74.9136 -2885.55
lowerback -4.90869 -0.0930597 -0.360646
upperback 2.64613 -0.105237 -0.00654802
thorax 5.49885 -0.0683404 0.185188
lowerneck -9.10506 -2.32092 -1.95041
upperneck 5.70101 -3.3534 5.79691
head 3.65272 -1.46691 2.08165
rclavicle 3.926e-014 -3.97569e-015
rhumerus -29.9121 -10.7945 -84.3224
rradius 22.7478
rwrist 0.949822
rhand -21.3652 5.09722
rfingers 7.12502
rthumb 5.02173 -24.8233
lclavicle 3.926e-014 -3.97569e-015
lhumerus -30.3099 6.24796 85.6073
lradius 31.5877
lwrist 9.49868
lhand -18.5392 16.129
lfingers 7.12502
lthumb 7.7499 45.967
rfemur -10.3084 1.03971 21.7568
rtibia 39.6246
rfoot -24.9191 -5.75621
rtoes 13.0496
lfemur -9.70552 12.7987 -24.2387
ltibia 22.9055
lfoot -17.4724 16.837
ltoes 4.95016
3549
root -35.2077 16.7929 -5.49606 4326.23 -74.4221 -2885.12
lowerback -4.82895 -0.0866934 -0.489563
upperback 2.6613 -0.0859823 -0.0474384
thorax 5.46926 -0.0628336 0.217029
lowerneck -9.06526 -2.30072 -1.92164
upperneck 5.69642 -3.32126 5.70537
head 3.63825 -1.45447 2.04716
rclavicle 3.04389e-014 7.95139e-016
rhumerus -29.8678 -10.7481 -84.3638
rradius 22.8197
rwrist 0.845501
rhand -21.3664 5.07668
rfingers 7.12502
rthumb 5.02053 -24.8438
lclavicle 3.04389e-014 7.95139e-016
lhumerus -30.1919 6.23823 85.6664
lradius 31.5727
lwrist 9.44372
lhand -18.5084 16.1435
lfingers 7.12502
lthumb 7.77965 45.9804
rfemur -10.9135 0.952123 21.6192
rtibia 40.9313
rfoot -24.793 -5.88163
rtoes 12.2067
lfemur -9.60602 12.9638 -24.3435
ltibia 22.8192
lfoot -17.2839 16.156
ltoes 4.84638
3550
root -35.2122 16.7868 -5.47678 4325.78 -73.9131 -2884.7
lowerback -4.76021 -0.0798583 -0.627436
upperback 2.68614 -0.065859 -0.0847545
thorax 5.45608 -0.057379 0.257625
lowerneck -9.05112 -2.27885 -1.91546
upperneck 5.70501 -3.28586 5.62856
head 3.63442 -1.43975 2.02214
rclavicle 1.61513e-014 7.95139e-016
rhumerus -29.813 -10.6798 -84.4107
rradius 22.9043
rwrist 0.733413
rhand -21.3682 5.0748
rfingers 7.12502
rthumb 5.01887 -24.8458
lclavicle 1.61513e-014 7.95139e-016
lhumerus -30.0627 6.20831 85.7406
lradius 31.5606
lwrist 9.40785
lhand -18.4697 16.1705
lfingers 7.12502
lthumb 7.81701 46.006
rfemur -11.5613 0.897558 21.4784
rtibia 42.3048
rfoot -24.6226 -6.02622
rtoes 11.4852
lfemur -9.50378 13.1521 -24.4433
ltibia 22.7281
lfoot -17.0997 15.415
ltoes 4.77743
3551
root -35.2169 16.7807 -5.45786 4325.32 -73.3879 -2884.28
lowerback -4.69849 -0.0716599 -0.774074
upperback 2.71845 -0.043424 -0.122967
thorax 5.45467 -0.0511855 0.302376
lowerneck -9.0518 -2.25689 -1.92689
upperneck 5.72099 -3.24947 5.56411
head 3.63693 -1.42412 2.00467
rclavicle -5.01931e-015 8.34896e-015
rhumerus -29.7514 -10.5957 -84.4635
rradius 22.9997
rwrist 0.615525
rhand -21.357 5.06412
rfingers 7.12502
rthumb 5.02961 -24.8562
lclavicle -5.01931e-015 8.34896e-015
lhumerus -29.9445 6.11964 85.8363
lradius 31.5847
lwrist 9.42084
lhand -18.4325 16.2336
lfingers 7.12502
lthumb 7.85294 46.0677
rfemur -12.2462 0.873226 21.3271
rtibia 43.7366
rfoot -24.4042 -6.20055
rtoes 10.938
lfemur -9.39337 13.371 -24.5444
ltibia 22.6278
lfoot -16.9108 14.6146
ltoes 4.72147
3552
root -35.2217 16.7744 -5.43913 4324.85 -72.8523 -2883.85
lowerback -4.64452 -0.0611851 -0.929457
upperback 2.75838 -0.0173026 -0.164085
thorax 5.46561 -0.0435744 0.349312
lowerneck -9.05646 -2.23615 -1.93071
upperneck 5.73413 -3.21457 5.48897
head 3.63879 -1.40948 1.98204
rclavicle 6.33129e-014 3.97569e-016
rhumerus -29.6808 -10.4927 -84.5238
rradius 23.1004
rwrist 0.501855
rhand -21.3427 5.04877
rfingers 7.12502
rthumb 5.04344 -24.8712
lclavicle 6.33129e-014 3.97569e-016
lhumerus -29.8239 6.00284 85.943
lradius 31.6154
lwrist 9.45219
lhand -18.398 16.3075
lfingers 7.12502
lthumb 7.88618 46.1404
rfemur -12.9662 0.879458 21.1634
rtibia 45.2164
rfoot -24.1306 -6.42488
rtoes 10.6136
lfemur -9.27627 13.6108 -24.6523
ltibia 22.518
lfoot -16.7183 13.7769
ltoes 4.66579
3553
root -35.2268 16.7679 -5.42029 4324.33 -72.3043 -2883.36
lowerback -4.60081 -0.0496188 -1.10492
upperback 2.80415 0.0120192 -0.212379
thorax 5.48845 -0.0351555 0.400315
lowerneck -9.07752 -2.21377 -1.95062
upperneck 5.76039 -3.17693 5.42512
head 3.64916 -1.393 1.96646
rclavicle 4.37326e-015 7.95139e-016
rhumerus -29.6049 -10.3741 -84.589
rradius 23.2047
rwrist 0.394937
rhand -21.3287 5.03085
rfingers 7.12502
rthumb 5.05694 -24.8888
lclavicle 4.37326e-015 7.95139e-016
lhumerus -29.7046 5.87838 86.0555
lradius 31.6488
lwrist 9.47976
lhand -18.3648 16.3802
lfingers 7.12502
lthumb 7.91821 46.2119
rfemur -13.7148 0.901065 20.9696
rtibia 46.7305
rfoot -23.7926 -6.71614
rtoes 10.4851
lfemur -9.14641 13.8597 -24.7834
ltibia 22.3948
lfoot -16.5379 12.9001
ltoes 4.68827
3554
root -35.2319 16.7612 -5.4021 4323.8 -71.729 -2882.85
lowerback -4.56026 -0.0434234 -1.29642
upperback 2.85119 0.035406 -0.264625
thorax 5.51448 -0.030332 0.45563
lowerneck -9.09994 -2.18641 -1.96009
upperneck 5.78819 -3.13306 5.35095
head 3.65953 -1.3736 1.94586
rclavicle 1.61264e-014 -1.98785e-015
rhumerus -29.5232 -10.2474 -84.6619
rradius 23.3033
rwrist 0.298066
rhand -21.3202 5.01886
rfingers 7.12502
rthumb 5.06517 -24.9006
lclavicle 1.61264e-014 -1.98785e-015
lhumerus -29.5907 5.7504 86.1665
lradius 31.6852
lwrist 9.50862
lhand -18.3413 16.4522
lfingers 7.12502
lthumb 7.94098 46.283
rfemur -14.4892 0.931867 20.7648
rtibia 48.2624
rfoot -23.395 -7.0903
rtoes 10.5339
lfemur -9.01331 14.1055 -24.9239
ltibia 22.2614
lfoot -16.3607 11.9902
ltoes 4.7682
3555
root -35.2378 16.7542 -5.38447 4323.25 -71.1239 -2882.33
lowerback -4.5071 -0.0420703 -1.5022
upperback 2.88976 0.0533364 -0.325667
thorax 5.5245 -0.0285294 0.509289
lowerneck -9.08458 -2.15675 -1.90503
upperneck 5.799 -3.08825 5.21433
head 3.65309 -1.35557 1.8922
rclavicle 4.29872e-015 -7.95139e-015
rhumerus -29.4599 -10.1143 -84.7442
rradius 23.3983
rwrist 0.205697
rhand -21.3179 5.02471
rfingers 7.12502
rthumb 5.06742 -24.8947
lclavicle 4.29872e-015 -7.95139e-015
lhumerus -29.5092 5.59012 86.2739
lradius 31.7356
lwrist 9.56389
lhand -18.3356 16.5079
lfingers 7.12502
lthumb 7.94647 46.3385
rfemur -15.2699 0.973277 20.5483
rtibia 49.7907
rfoot -22.9551 -7.5451
rtoes 10.7272
lfemur -8.86845 14.3352 -25.0743
ltibia 22.1222
lfoot -16.2004 11.0501
ltoes 4.95584
